<svg width="233" height="45" viewBox="0 0 233 45" fill="none" xmlns="http://www.w3.org/2000/svg">
<path d="M23.6 24.04H6V33H0V18.52H31.52V15.88H0V9.72H30.2C31.2667 9.72 32.2667 9.85333 33.2 10.12C34.1333 10.36 34.9333 10.7333 35.6 11.24C36.2667 11.7467 36.7867 12.3867 37.16 13.16C37.56 13.9333 37.76 14.84 37.76 15.88V18.52C37.76 20.5467 37.1333 21.9733 35.88 22.8C34.6533 23.6267 32.7467 24.04 30.16 24.04L37.76 33H31.2L23.6 24.04ZM79.7913 26.68V33H49.5913C47.4846 33 45.6979 32.44 44.2313 31.32C42.7646 30.1733 42.0312 28.8 42.0312 27.2V18.52H79.7913V24.04H48.0313V26.68H79.7913ZM42.0312 15.88V15.52C42.0312 13.92 42.7646 12.56 44.2313 11.44C45.6979 10.2933 47.4846 9.72 49.5913 9.72H79.7913V15.88H42.0312ZM90.2225 9.72L115.823 26.68V9.72H121.823V33H115.823L90.1425 15.88H84.0625V9.72H90.2225ZM84.0625 18.68H90.0625V33H84.0625V18.68ZM147.854 33H141.854V15.88H126.094V9.72H163.854V15.88H147.854V33Z" fill="#2B2C35"/>
<path d="M230.56 1.864C229.728 1.864 228.912 2.024 228.112 2.344C227.312 2.632 226.56 3.048 225.856 3.592C225.184 4.104 224.56 4.728 223.984 5.464C223.44 6.168 223.024 6.92 222.736 7.72H212.944L201.232 19.48L213.04 37.144H201.28L194.176 26.536L183.616 37.144H166L167.92 31.24H177.76L189.472 19.48L177.664 1.864H189.424L196.48 12.424L207.04 1.864H230.56Z" fill="#EAB308"/>
</svg>
